<?xml version="1.0" encoding="UTF-8"?>
<svg height="16px" viewBox="0 0 16 16" width="16px" xmlns="http://www.w3.org/2000/svg">
    <g fill="#241f31">
        <path d="m 7 3.011719 l -0.007812 1.976562 h 5.007812 c 0.578125 0 1.011719 0.433594 1.011719 1.011719 v 5 c 0 0.578125 -0.433594 1.011719 -1.011719 1.011719 h -6 v 1.976562 h 6 c 1.636719 0 2.988281 -1.351562 2.988281 -2.988281 v -5 c 0 -1.636719 -1.351562 -2.988281 -2.988281 -2.988281 z m 0 0"/>
        <path d="m 5 2 c 0.550781 0 1 0.449219 1 1 v 2 h -5 v -2 c 0 -0.550781 0.449219 -1 1 -1 v 2 l 1 -2 z m 1 4 v 1 c 0 0.550781 -0.449219 1 -1 1 v 5.492188 c 0.003906 0.832031 -0.664062 1.503906 -1.492188 1.507812 c -0.832031 0 -1.507812 -0.675781 -1.507812 -1.507812 v -5.492188 c -0.550781 0 -1 -0.449219 -1 -1 v -1 z m 0 0"/>
    </g>
</svg>
