<?xml version="1.0" encoding="UTF-8"?>
<svg height="128px" viewBox="0 0 128 128" width="128px" xmlns="http://www.w3.org/2000/svg" xmlns:xlink="http://www.w3.org/1999/xlink">
    <filter id="a" height="100%" width="100%" x="0%" y="0%">
        <feColorMatrix color-interpolation-filters="sRGB" values="0 0 0 0 1 0 0 0 0 1 0 0 0 0 1 0 0 0 1 0"/>
    </filter>
    <linearGradient id="b" gradientUnits="userSpaceOnUse" x1="14.0000115" x2="126.0000115" y1="115.999977" y2="115.999977">
        <stop offset="0" stop-color="#151a20"/>
        <stop offset="0.0357143" stop-color="#3a495c"/>
        <stop offset="0.0713653" stop-color="#202934"/>
        <stop offset="0.928571" stop-color="#202934"/>
        <stop offset="0.964286" stop-color="#3a495c"/>
        <stop offset="1" stop-color="#151a20"/>
    </linearGradient>
    <clipPath id="c">
        <path d="m 14 28 h 112 v 22 h -112 z m 0 0"/>
    </clipPath>
    <clipPath id="d">
        <path d="m 22 28 h 96 c 4.417969 0 8 3.582031 8 8 v 68 c 0 4.417969 -3.582031 8 -8 8 h -96 c -4.417969 0 -8 -3.582031 -8 -8 v -68 c 0 -4.417969 3.582031 -8 8 -8 z m 0 0"/>
    </clipPath>
    <clipPath id="e">
        <path d="m 46 32 h 32 v 12 h -32 z m 0 0"/>
    </clipPath>
    <clipPath id="f">
        <path d="m 22 28 h 96 c 4.417969 0 8 3.582031 8 8 v 68 c 0 4.417969 -3.582031 8 -8 8 h -96 c -4.417969 0 -8 -3.582031 -8 -8 v -68 c 0 -4.417969 3.582031 -8 8 -8 z m 0 0"/>
    </clipPath>
    <clipPath id="g">
        <path d="m 50 36 h 24 v 4 h -24 z m 0 0"/>
    </clipPath>
    <clipPath id="h">
        <path d="m 22 28 h 96 c 4.417969 0 8 3.582031 8 8 v 68 c 0 4.417969 -3.582031 8 -8 8 h -96 c -4.417969 0 -8 -3.582031 -8 -8 v -68 c 0 -4.417969 3.582031 -8 8 -8 z m 0 0"/>
    </clipPath>
    <clipPath id="i">
        <path d="m 112 34 h 8 v 8 h -8 z m 0 0"/>
    </clipPath>
    <clipPath id="j">
        <path d="m 22 28 h 96 c 4.417969 0 8 3.582031 8 8 v 68 c 0 4.417969 -3.582031 8 -8 8 h -96 c -4.417969 0 -8 -3.582031 -8 -8 v -68 c 0 -4.417969 3.582031 -8 8 -8 z m 0 0"/>
    </clipPath>
    <clipPath id="k">
        <path d="m 22 36 h 18 v 4 h -18 z m 0 0"/>
    </clipPath>
    <clipPath id="l">
        <path d="m 22 28 h 96 c 4.417969 0 8 3.582031 8 8 v 68 c 0 4.417969 -3.582031 8 -8 8 h -96 c -4.417969 0 -8 -3.582031 -8 -8 v -68 c 0 -4.417969 3.582031 -8 8 -8 z m 0 0"/>
    </clipPath>
    <clipPath id="m">
        <path d="m 84 36 h 18 v 4 h -18 z m 0 0"/>
    </clipPath>
    <clipPath id="n">
        <path d="m 22 28 h 96 c 4.417969 0 8 3.582031 8 8 v 68 c 0 4.417969 -3.582031 8 -8 8 h -96 c -4.417969 0 -8 -3.582031 -8 -8 v -68 c 0 -4.417969 3.582031 -8 8 -8 z m 0 0"/>
    </clipPath>
    <clipPath id="o">
        <path d="m 18 54 h 104 v 32 h -104 z m 0 0"/>
    </clipPath>
    <clipPath id="p">
        <path d="m 22 28 h 96 c 4.417969 0 8 3.582031 8 8 v 68 c 0 4.417969 -3.582031 8 -8 8 h -96 c -4.417969 0 -8 -3.582031 -8 -8 v -68 c 0 -4.417969 3.582031 -8 8 -8 z m 0 0"/>
    </clipPath>
    <clipPath id="q">
        <path d="m 18 90 h 50 v 18 h -50 z m 0 0"/>
    </clipPath>
    <clipPath id="r">
        <path d="m 22 28 h 96 c 4.417969 0 8 3.582031 8 8 v 68 c 0 4.417969 -3.582031 8 -8 8 h -96 c -4.417969 0 -8 -3.582031 -8 -8 v -68 c 0 -4.417969 3.582031 -8 8 -8 z m 0 0"/>
    </clipPath>
    <clipPath id="s">
        <path d="m 72 90 h 50 v 18 h -50 z m 0 0"/>
    </clipPath>
    <clipPath id="t">
        <path d="m 22 28 h 96 c 4.417969 0 8 3.582031 8 8 v 68 c 0 4.417969 -3.582031 8 -8 8 h -96 c -4.417969 0 -8 -3.582031 -8 -8 v -68 c 0 -4.417969 3.582031 -8 8 -8 z m 0 0"/>
    </clipPath>
    <clipPath id="u">
        <path d="m 88 96 h 28 v 6 h -28 z m 0 0"/>
    </clipPath>
    <clipPath id="v">
        <path d="m 22 28 h 96 c 4.417969 0 8 3.582031 8 8 v 68 c 0 4.417969 -3.582031 8 -8 8 h -96 c -4.417969 0 -8 -3.582031 -8 -8 v -68 c 0 -4.417969 3.582031 -8 8 -8 z m 0 0"/>
    </clipPath>
    <clipPath id="w">
        <path d="m 14 48 h 112 v 2 h -112 z m 0 0"/>
    </clipPath>
    <clipPath id="x">
        <path d="m 22 28 h 96 c 4.417969 0 8 3.582031 8 8 v 68 c 0 4.417969 -3.582031 8 -8 8 h -96 c -4.417969 0 -8 -3.582031 -8 -8 v -68 c 0 -4.417969 3.582031 -8 8 -8 z m 0 0"/>
    </clipPath>
    <clipPath id="y">
        <path d="m 90 58 h 26 v 26 h -26 z m 0 0"/>
    </clipPath>
    <clipPath id="z">
        <path d="m 22 28 h 96 c 4.417969 0 8 3.582031 8 8 v 68 c 0 4.417969 -3.582031 8 -8 8 h -96 c -4.417969 0 -8 -3.582031 -8 -8 v -68 c 0 -4.417969 3.582031 -8 8 -8 z m 0 0"/>
    </clipPath>
    <clipPath id="A">
        <path d="m 14 56 h 26 v 60 h -26 z m 0 0"/>
    </clipPath>
    <clipPath id="B">
        <path d="m 22 40 h 96 c 4.417969 0 8 3.582031 8 8 v 60 c 0 4.417969 -3.582031 8 -8 8 h -96 c -4.417969 0 -8 -3.582031 -8 -8 v -60 c 0 -4.417969 3.582031 -8 8 -8 z m 0 0"/>
    </clipPath>
    <linearGradient id="C" gradientUnits="userSpaceOnUse" x1="2" x2="40" y1="87" y2="87">
        <stop offset="0" stop-color="#3584e4"/>
        <stop offset="1" stop-color="#33d17a"/>
    </linearGradient>
    <linearGradient id="D" gradientUnits="userSpaceOnUse" x1="2.000011" x2="40" y1="52" y2="52">
        <stop offset="0" stop-color="#9a9996"/>
        <stop offset="0.645559" stop-color="#c0bfbc"/>
        <stop offset="1" stop-color="#77767b"/>
    </linearGradient>
    <clipPath id="E">
        <path d="m 14 28 h 112 v 22 h -112 z m 0 0"/>
    </clipPath>
    <clipPath id="F">
        <path d="m 22 28 h 96 c 4.417969 0 8 3.582031 8 8 v 68 c 0 4.417969 -3.582031 8 -8 8 h -96 c -4.417969 0 -8 -3.582031 -8 -8 v -68 c 0 -4.417969 3.582031 -8 8 -8 z m 0 0"/>
    </clipPath>
    <clipPath id="G">
        <path d="m 46 32 h 32 v 12 h -32 z m 0 0"/>
    </clipPath>
    <clipPath id="H">
        <path d="m 22 28 h 96 c 4.417969 0 8 3.582031 8 8 v 68 c 0 4.417969 -3.582031 8 -8 8 h -96 c -4.417969 0 -8 -3.582031 -8 -8 v -68 c 0 -4.417969 3.582031 -8 8 -8 z m 0 0"/>
    </clipPath>
    <clipPath id="I">
        <path d="m 50 36 h 24 v 4 h -24 z m 0 0"/>
    </clipPath>
    <clipPath id="J">
        <path d="m 22 28 h 96 c 4.417969 0 8 3.582031 8 8 v 68 c 0 4.417969 -3.582031 8 -8 8 h -96 c -4.417969 0 -8 -3.582031 -8 -8 v -68 c 0 -4.417969 3.582031 -8 8 -8 z m 0 0"/>
    </clipPath>
    <clipPath id="K">
        <path d="m 112 34 h 8 v 8 h -8 z m 0 0"/>
    </clipPath>
    <clipPath id="L">
        <path d="m 22 28 h 96 c 4.417969 0 8 3.582031 8 8 v 68 c 0 4.417969 -3.582031 8 -8 8 h -96 c -4.417969 0 -8 -3.582031 -8 -8 v -68 c 0 -4.417969 3.582031 -8 8 -8 z m 0 0"/>
    </clipPath>
    <clipPath id="M">
        <path d="m 22 36 h 18 v 4 h -18 z m 0 0"/>
    </clipPath>
    <clipPath id="N">
        <path d="m 22 28 h 96 c 4.417969 0 8 3.582031 8 8 v 68 c 0 4.417969 -3.582031 8 -8 8 h -96 c -4.417969 0 -8 -3.582031 -8 -8 v -68 c 0 -4.417969 3.582031 -8 8 -8 z m 0 0"/>
    </clipPath>
    <clipPath id="O">
        <path d="m 84 36 h 18 v 4 h -18 z m 0 0"/>
    </clipPath>
    <clipPath id="P">
        <path d="m 22 28 h 96 c 4.417969 0 8 3.582031 8 8 v 68 c 0 4.417969 -3.582031 8 -8 8 h -96 c -4.417969 0 -8 -3.582031 -8 -8 v -68 c 0 -4.417969 3.582031 -8 8 -8 z m 0 0"/>
    </clipPath>
    <clipPath id="Q">
        <path d="m 18 54 h 104 v 32 h -104 z m 0 0"/>
    </clipPath>
    <clipPath id="R">
        <path d="m 22 28 h 96 c 4.417969 0 8 3.582031 8 8 v 68 c 0 4.417969 -3.582031 8 -8 8 h -96 c -4.417969 0 -8 -3.582031 -8 -8 v -68 c 0 -4.417969 3.582031 -8 8 -8 z m 0 0"/>
    </clipPath>
    <clipPath id="S">
        <path d="m 18 90 h 50 v 18 h -50 z m 0 0"/>
    </clipPath>
    <clipPath id="T">
        <path d="m 22 28 h 96 c 4.417969 0 8 3.582031 8 8 v 68 c 0 4.417969 -3.582031 8 -8 8 h -96 c -4.417969 0 -8 -3.582031 -8 -8 v -68 c 0 -4.417969 3.582031 -8 8 -8 z m 0 0"/>
    </clipPath>
    <clipPath id="U">
        <path d="m 72 90 h 50 v 18 h -50 z m 0 0"/>
    </clipPath>
    <clipPath id="V">
        <path d="m 22 28 h 96 c 4.417969 0 8 3.582031 8 8 v 68 c 0 4.417969 -3.582031 8 -8 8 h -96 c -4.417969 0 -8 -3.582031 -8 -8 v -68 c 0 -4.417969 3.582031 -8 8 -8 z m 0 0"/>
    </clipPath>
    <clipPath id="W">
        <path d="m 88 96 h 28 v 6 h -28 z m 0 0"/>
    </clipPath>
    <clipPath id="X">
        <path d="m 22 28 h 96 c 4.417969 0 8 3.582031 8 8 v 68 c 0 4.417969 -3.582031 8 -8 8 h -96 c -4.417969 0 -8 -3.582031 -8 -8 v -68 c 0 -4.417969 3.582031 -8 8 -8 z m 0 0"/>
    </clipPath>
    <clipPath id="Y">
        <path d="m 14 48 h 112 v 2 h -112 z m 0 0"/>
    </clipPath>
    <clipPath id="Z">
        <path d="m 22 28 h 96 c 4.417969 0 8 3.582031 8 8 v 68 c 0 4.417969 -3.582031 8 -8 8 h -96 c -4.417969 0 -8 -3.582031 -8 -8 v -68 c 0 -4.417969 3.582031 -8 8 -8 z m 0 0"/>
    </clipPath>
    <clipPath id="aa">
        <path d="m 90 58 h 26 v 26 h -26 z m 0 0"/>
    </clipPath>
    <clipPath id="ab">
        <path d="m 22 28 h 96 c 4.417969 0 8 3.582031 8 8 v 68 c 0 4.417969 -3.582031 8 -8 8 h -96 c -4.417969 0 -8 -3.582031 -8 -8 v -68 c 0 -4.417969 3.582031 -8 8 -8 z m 0 0"/>
    </clipPath>
    <clipPath id="ac">
        <path d="m 14 56 h 26 v 60 h -26 z m 0 0"/>
    </clipPath>
    <clipPath id="ad">
        <path d="m 22 40 h 96 c 4.417969 0 8 3.582031 8 8 v 60 c 0 4.417969 -3.582031 8 -8 8 h -96 c -4.417969 0 -8 -3.582031 -8 -8 v -60 c 0 -4.417969 3.582031 -8 8 -8 z m 0 0"/>
    </clipPath>
    <clipPath id="ae">
        <rect height="128" width="128"/>
    </clipPath>
    <clipPath id="af">
        <rect height="128" width="128"/>
    </clipPath>
    <mask id="ag">
        <g filter="url(#a)">
            <g clip-path="url(#af)" filter="url(#a)">
                <g clip-path="url(#ae)">
                    <path d="m 16 84 h 101 c 1.105469 0 2 0.894531 2 2 v 24 c 0 1.105469 -0.894531 2 -2 2 h -101 c -1.105469 0 -2 -0.894531 -2 -2 v -24 c 0 -1.105469 0.894531 -2 2 -2 z m 0 0" fill="#ffffff" fill-opacity="0.2"/>
                    <path d="m 22 40 h 96 c 4.417969 0 8 3.582031 8 8 v 60 c 0 4.417969 -3.582031 8 -8 8 h -96 c -4.417969 0 -8 -3.582031 -8 -8 v -60 c 0 -4.417969 3.582031 -8 8 -8 z m 0 0" fill="url(#b)"/>
                    <path d="m 22 28 h 96 c 4.417969 0 8 3.582031 8 8 v 68 c 0 4.417969 -3.582031 8 -8 8 h -96 c -4.417969 0 -8 -3.582031 -8 -8 v -68 c 0 -4.417969 3.582031 -8 8 -8 z m 0 0" fill="#364356"/>
                    <g clip-path="url(#E)">
                        <g clip-path="url(#F)">
                            <path d="m 14 28 h 112 v 22 h -112 z m 0 0" fill="#3d3846"/>
                        </g>
                    </g>
                    <g clip-path="url(#G)">
                        <g clip-path="url(#H)">
                            <path d="m 49 32 h 26 c 1.65625 0 3 1.34375 3 3 v 6 c 0 1.65625 -1.34375 3 -3 3 h -26 c -1.65625 0 -3 -1.34375 -3 -3 v -6 c 0 -1.65625 1.34375 -3 3 -3 z m 0 0" fill="#ffffff" fill-opacity="0.2"/>
                        </g>
                    </g>
                    <g clip-path="url(#I)">
                        <g clip-path="url(#J)">
                            <path d="m 52 36 h 20 c 1.105469 0 2 0.894531 2 2 s -0.894531 2 -2 2 h -20 c -1.105469 0 -2 -0.894531 -2 -2 s 0.894531 -2 2 -2 z m 0 0" fill="#ffffff" fill-opacity="0.4"/>
                        </g>
                    </g>
                    <g clip-path="url(#K)">
                        <g clip-path="url(#L)">
                            <path d="m 112 34 v 2 l 2 2 l -2 2 v 2 h 2 l 2 -2 l 2 2 h 2 v -2 l -2 -2 l 2 -2 v -2 h -2 l -2 2 l -2 -2 z m 0 0" fill="#ffffff" fill-opacity="0.2"/>
                        </g>
                    </g>
                    <g clip-path="url(#M)">
                        <g clip-path="url(#N)">
                            <path d="m 24 36 h 14 c 1.105469 0 2 0.894531 2 2 s -0.894531 2 -2 2 h -14 c -1.105469 0 -2 -0.894531 -2 -2 s 0.894531 -2 2 -2 z m 0 0" fill="#ffffff" fill-opacity="0.4"/>
                        </g>
                    </g>
                    <g clip-path="url(#O)">
                        <g clip-path="url(#P)">
                            <path d="m 86 36 h 14 c 1.105469 0 2 0.894531 2 2 s -0.894531 2 -2 2 h -14 c -1.105469 0 -2 -0.894531 -2 -2 s 0.894531 -2 2 -2 z m 0 0" fill="#ffffff" fill-opacity="0.4"/>
                        </g>
                    </g>
                    <g clip-path="url(#Q)">
                        <g clip-path="url(#R)">
                            <path d="m 20 54 h 100 c 1.105469 0 2 0.894531 2 2 v 28 c 0 1.105469 -0.894531 2 -2 2 h -100 c -1.105469 0 -2 -0.894531 -2 -2 v -28 c 0 -1.105469 0.894531 -2 2 -2 z m 0 0" fill="#ffffff" fill-opacity="0.2"/>
                        </g>
                    </g>
                    <g clip-path="url(#S)">
                        <g clip-path="url(#T)">
                            <path d="m 20 90 h 46 c 1.105469 0 2 0.894531 2 2 v 14 c 0 1.105469 -0.894531 2 -2 2 h -46 c -1.105469 0 -2 -0.894531 -2 -2 v -14 c 0 -1.105469 0.894531 -2 2 -2 z m 0 0" fill="#ffffff" fill-opacity="0.2"/>
                        </g>
                    </g>
                    <g clip-path="url(#U)">
                        <g clip-path="url(#V)">
                            <path d="m 74 90 h 46 c 1.105469 0 2 0.894531 2 2 v 14 c 0 1.105469 -0.894531 2 -2 2 h -46 c -1.105469 0 -2 -0.894531 -2 -2 v -14 c 0 -1.105469 0.894531 -2 2 -2 z m 0 0" fill="#ffffff" fill-opacity="0.2"/>
                        </g>
                    </g>
                    <g clip-path="url(#W)">
                        <g clip-path="url(#X)">
                            <path d="m 90 96 h 24 c 1.105469 0 2 0.894531 2 2 v 2 c 0 1.105469 -0.894531 2 -2 2 h -24 c -1.105469 0 -2 -0.894531 -2 -2 v -2 c 0 -1.105469 0.894531 -2 2 -2 z m 0 0" fill="#637d9e"/>
                        </g>
                    </g>
                    <g clip-path="url(#Y)">
                        <g clip-path="url(#Z)">
                            <path d="m 14 48 h 112 v 2 h -112 z m 0 0" fill-opacity="0.2"/>
                        </g>
                    </g>
                    <g clip-path="url(#aa)">
                        <g clip-path="url(#ab)">
                            <path d="m 106.019531 84 l -16.019531 -16 h 16 v -10 h 10 l -10 10 h 10 v 10 l -10 -10 z m 0 0" fill-opacity="0.14902"/>
                        </g>
                    </g>
                    <path d="m 4 22 h 34 c 1.105469 0 2 0.894531 2 2 v 22 c 0 1.105469 -0.894531 2 -2 2 h -34 c -1.105469 0 -2 -0.894531 -2 -2 v -22 c 0 -1.105469 0.894531 -2 2 -2 z m 0 0" fill="#deddda"/>
                    <g clip-path="url(#ac)">
                        <g clip-path="url(#ad)">
                            <path d="m 2 56 v 4 c 0 1.226562 0.691406 2.347656 1.789062 2.894531 l 4.84375 2.421875 c 3.289063 1.644532 5.367188 5.007813 5.367188 8.683594 l -3.078125 36.957031 c -0.496094 5.945313 4.195313 11.042969 10.160156 11.042969 c 5.921875 -0.046875 10.539063 -5.144531 9.996094 -11.042969 l -3.078125 -36.957031 c 0 -3.675781 2.078125 -7.039062 5.367188 -8.683594 l 4.84375 -2.421875 c 1.097656 -0.546875 1.789062 -1.667969 1.789062 -2.894531 v -4 z m 0 0" fill-opacity="0.2"/>
                        </g>
                    </g>
                    <path d="m 2 54 v 4 c 0 1.226562 0.691406 2.347656 1.789062 2.894531 l 4.84375 2.421875 c 3.289063 1.644532 5.367188 5.007813 5.367188 8.683594 l -3.078125 36.957031 c -0.496094 5.945313 4.195313 11.042969 10.160156 11.042969 c 5.921875 -0.046875 10.539063 -5.144531 9.996094 -11.042969 l -3.078125 -36.957031 c 0 -3.675781 2.078125 -7.039062 5.367188 -8.683594 l 4.84375 -2.421875 c 1.097656 -0.546875 1.789062 -1.667969 1.789062 -2.894531 v -4 z m 0 0" fill="url(#C)"/>
                    <path d="m 2 46 h 38 v 12 h -38 z m 0 0" fill="url(#D)"/>
                    <path d="m 4 22 l 1 20 l 1 -20 z m 0 0" fill-opacity="0.101961"/>
                    <path d="m 12 22 l 3 16 l 1 -16 z m 0 0" fill-opacity="0.101961"/>
                    <path d="m 34 22 l 1 18 l 1 -18 z m 0 0" fill-opacity="0.101961"/>
                    <path d="m 22 22 l 1 22 l 3 -22 z m 0 0" fill-opacity="0.101961"/>
                    <path d="m 2 57 v 1 h 38 v -1 z m 0 0" fill="#ffffff" fill-opacity="0.2"/>
                    <path d="m 2 46 v 1 h 38 v -1 z m 0 0" fill="#ffffff" fill-opacity="0.2"/>
                    <path d="m 25 110 c 0 2.210938 -1.789062 4 -4 4 s -4 -1.789062 -4 -4 s 1.789062 -4 4 -4 s 4 1.789062 4 4 z m 0 0" fill-opacity="0.14902"/>
                </g>
            </g>
        </g>
    </mask>
    <mask id="ah">
        <g filter="url(#a)">
            <rect fill-opacity="0.8" height="184.32" width="184.32" x="-28.16" y="-28.16"/>
        </g>
    </mask>
    <linearGradient id="ai" gradientTransform="matrix(0 0.37 -0.98462 0 295.38501 -30.360001)" gradientUnits="userSpaceOnUse" x1="300" x2="428" y1="235" y2="235">
        <stop offset="0" stop-color="#f9f06b"/>
        <stop offset="1" stop-color="#f5c211"/>
    </linearGradient>
    <clipPath id="aj">
        <rect height="128" width="128"/>
    </clipPath>
    <clipPath id="ak">
        <rect height="128" width="128"/>
    </clipPath>
    <path d="m 16 84 h 101 c 1.105469 0 2 0.894531 2 2 v 24 c 0 1.105469 -0.894531 2 -2 2 h -101 c -1.105469 0 -2 -0.894531 -2 -2 v -24 c 0 -1.105469 0.894531 -2 2 -2 z m 0 0" fill="#ffffff" fill-opacity="0.2"/>
    <path d="m 22 40 h 96 c 4.417969 0 8 3.582031 8 8 v 60 c 0 4.417969 -3.582031 8 -8 8 h -96 c -4.417969 0 -8 -3.582031 -8 -8 v -60 c 0 -4.417969 3.582031 -8 8 -8 z m 0 0" fill="url(#b)"/>
    <path d="m 22 28 h 96 c 4.417969 0 8 3.582031 8 8 v 68 c 0 4.417969 -3.582031 8 -8 8 h -96 c -4.417969 0 -8 -3.582031 -8 -8 v -68 c 0 -4.417969 3.582031 -8 8 -8 z m 0 0" fill="#364356"/>
    <g clip-path="url(#c)">
        <g clip-path="url(#d)">
            <path d="m 14 28 h 112 v 22 h -112 z m 0 0" fill="#3d3846"/>
        </g>
    </g>
    <g clip-path="url(#e)">
        <g clip-path="url(#f)">
            <path d="m 49 32 h 26 c 1.65625 0 3 1.34375 3 3 v 6 c 0 1.65625 -1.34375 3 -3 3 h -26 c -1.65625 0 -3 -1.34375 -3 -3 v -6 c 0 -1.65625 1.34375 -3 3 -3 z m 0 0" fill="#ffffff" fill-opacity="0.2"/>
        </g>
    </g>
    <g clip-path="url(#g)">
        <g clip-path="url(#h)">
            <path d="m 52 36 h 20 c 1.105469 0 2 0.894531 2 2 s -0.894531 2 -2 2 h -20 c -1.105469 0 -2 -0.894531 -2 -2 s 0.894531 -2 2 -2 z m 0 0" fill="#ffffff" fill-opacity="0.4"/>
        </g>
    </g>
    <g clip-path="url(#i)">
        <g clip-path="url(#j)">
            <path d="m 112 34 v 2 l 2 2 l -2 2 v 2 h 2 l 2 -2 l 2 2 h 2 v -2 l -2 -2 l 2 -2 v -2 h -2 l -2 2 l -2 -2 z m 0 0" fill="#ffffff" fill-opacity="0.2"/>
        </g>
    </g>
    <g clip-path="url(#k)">
        <g clip-path="url(#l)">
            <path d="m 24 36 h 14 c 1.105469 0 2 0.894531 2 2 s -0.894531 2 -2 2 h -14 c -1.105469 0 -2 -0.894531 -2 -2 s 0.894531 -2 2 -2 z m 0 0" fill="#ffffff" fill-opacity="0.4"/>
        </g>
    </g>
    <g clip-path="url(#m)">
        <g clip-path="url(#n)">
            <path d="m 86 36 h 14 c 1.105469 0 2 0.894531 2 2 s -0.894531 2 -2 2 h -14 c -1.105469 0 -2 -0.894531 -2 -2 s 0.894531 -2 2 -2 z m 0 0" fill="#ffffff" fill-opacity="0.4"/>
        </g>
    </g>
    <g clip-path="url(#o)">
        <g clip-path="url(#p)">
            <path d="m 20 54 h 100 c 1.105469 0 2 0.894531 2 2 v 28 c 0 1.105469 -0.894531 2 -2 2 h -100 c -1.105469 0 -2 -0.894531 -2 -2 v -28 c 0 -1.105469 0.894531 -2 2 -2 z m 0 0" fill="#ffffff" fill-opacity="0.2"/>
        </g>
    </g>
    <g clip-path="url(#q)">
        <g clip-path="url(#r)">
            <path d="m 20 90 h 46 c 1.105469 0 2 0.894531 2 2 v 14 c 0 1.105469 -0.894531 2 -2 2 h -46 c -1.105469 0 -2 -0.894531 -2 -2 v -14 c 0 -1.105469 0.894531 -2 2 -2 z m 0 0" fill="#ffffff" fill-opacity="0.2"/>
        </g>
    </g>
    <g clip-path="url(#s)">
        <g clip-path="url(#t)">
            <path d="m 74 90 h 46 c 1.105469 0 2 0.894531 2 2 v 14 c 0 1.105469 -0.894531 2 -2 2 h -46 c -1.105469 0 -2 -0.894531 -2 -2 v -14 c 0 -1.105469 0.894531 -2 2 -2 z m 0 0" fill="#ffffff" fill-opacity="0.2"/>
        </g>
    </g>
    <g clip-path="url(#u)">
        <g clip-path="url(#v)">
            <path d="m 90 96 h 24 c 1.105469 0 2 0.894531 2 2 v 2 c 0 1.105469 -0.894531 2 -2 2 h -24 c -1.105469 0 -2 -0.894531 -2 -2 v -2 c 0 -1.105469 0.894531 -2 2 -2 z m 0 0" fill="#637d9e"/>
        </g>
    </g>
    <g clip-path="url(#w)">
        <g clip-path="url(#x)">
            <path d="m 14 48 h 112 v 2 h -112 z m 0 0" fill-opacity="0.2"/>
        </g>
    </g>
    <g clip-path="url(#y)">
        <g clip-path="url(#z)">
            <path d="m 106.019531 84 l -16.019531 -16 h 16 v -10 h 10 l -10 10 h 10 v 10 l -10 -10 z m 0 0" fill-opacity="0.14902"/>
        </g>
    </g>
    <path d="m 4 22 h 34 c 1.105469 0 2 0.894531 2 2 v 22 c 0 1.105469 -0.894531 2 -2 2 h -34 c -1.105469 0 -2 -0.894531 -2 -2 v -22 c 0 -1.105469 0.894531 -2 2 -2 z m 0 0" fill="#deddda"/>
    <g clip-path="url(#A)">
        <g clip-path="url(#B)">
            <path d="m 2 56 v 4 c 0 1.226562 0.691406 2.347656 1.789062 2.894531 l 4.84375 2.421875 c 3.289063 1.644532 5.367188 5.007813 5.367188 8.683594 l -3.078125 36.957031 c -0.496094 5.945313 4.195313 11.042969 10.160156 11.042969 c 5.921875 -0.046875 10.539063 -5.144531 9.996094 -11.042969 l -3.078125 -36.957031 c 0 -3.675781 2.078125 -7.039062 5.367188 -8.683594 l 4.84375 -2.421875 c 1.097656 -0.546875 1.789062 -1.667969 1.789062 -2.894531 v -4 z m 0 0" fill-opacity="0.2"/>
        </g>
    </g>
    <path d="m 2 54 v 4 c 0 1.226562 0.691406 2.347656 1.789062 2.894531 l 4.84375 2.421875 c 3.289063 1.644532 5.367188 5.007813 5.367188 8.683594 l -3.078125 36.957031 c -0.496094 5.945313 4.195313 11.042969 10.160156 11.042969 c 5.921875 -0.046875 10.539063 -5.144531 9.996094 -11.042969 l -3.078125 -36.957031 c 0 -3.675781 2.078125 -7.039062 5.367188 -8.683594 l 4.84375 -2.421875 c 1.097656 -0.546875 1.789062 -1.667969 1.789062 -2.894531 v -4 z m 0 0" fill="url(#C)"/>
    <path d="m 2 46 h 38 v 12 h -38 z m 0 0" fill="url(#D)"/>
    <g fill-opacity="0.101961">
        <path d="m 4 22 l 1 20 l 1 -20 z m 0 0"/>
        <path d="m 12 22 l 3 16 l 1 -16 z m 0 0"/>
        <path d="m 34 22 l 1 18 l 1 -18 z m 0 0"/>
        <path d="m 22 22 l 1 22 l 3 -22 z m 0 0"/>
    </g>
    <path d="m 2 57 v 1 h 38 v -1 z m 0 0" fill="#ffffff" fill-opacity="0.2"/>
    <path d="m 2 46 v 1 h 38 v -1 z m 0 0" fill="#ffffff" fill-opacity="0.2"/>
    <path d="m 25 110 c 0 2.210938 -1.789062 4 -4 4 s -4 -1.789062 -4 -4 s 1.789062 -4 4 -4 s 4 1.789062 4 4 z m 0 0" fill-opacity="0.14902"/>
    <g mask="url(#ag)">
        <g clip-path="url(#ak)">
            <g mask="url(#ah)">
                <g clip-path="url(#aj)">
                    <path d="m 128 80.640625 v 47.359375 h -128 v -47.359375 z m 0 0" fill="url(#ai)"/>
                    <path d="m 13.308594 80.640625 l 47.355468 47.359375 h 21.214844 l -47.359375 -47.359375 z m 42.421875 0 l 47.363281 47.359375 h 21.214844 l -47.363282 -47.359375 z m 42.429687 0 l 29.839844 29.839844 v -21.210938 l -8.628906 -8.628906 z m -98.160156 7.90625 v 21.214844 l 18.238281 18.238281 h 21.214844 z m 0 0"/>
                </g>
            </g>
        </g>
    </g>
</svg>
