<?xml version="1.0" encoding="UTF-8" standalone="no"?>
<svg
   width="300"
   height="300"
   viewBox="0 0 300 300"
   version="1.2"
   id="svg82"
   sodipodi:docname="GlyphName.svg"
   inkscape:version="1.2.1 (9c6d41e410, 2022-07-14)"
   xmlns:inkscape="http://www.inkscape.org/namespaces/inkscape"
   xmlns:sodipodi="http://sodipodi.sourceforge.net/DTD/sodipodi-0.dtd"
   xmlns="http://www.w3.org/2000/svg"
   xmlns:svg="http://www.w3.org/2000/svg">
  <defs
     id="defs86" />
  <sodipodi:namedview
     id="namedview84"
     pagecolor="#ffffff"
     bordercolor="#000000"
     borderopacity="0.25"
     inkscape:showpageshadow="2"
     inkscape:pageopacity="0.0"
     inkscape:pagecheckerboard="true"
     inkscape:deskcolor="#d1d1d1"
     showgrid="false"
     inkscape:zoom="1.1666667"
     inkscape:cx="-72.428572"
     inkscape:cy="188.14286"
     inkscape:window-width="1920"
     inkscape:window-height="1015"
     inkscape:window-x="0"
     inkscape:window-y="28"
     inkscape:window-maximized="1"
     inkscape:current-layer="svg82" />
  <g
     id="surface67406"
     style="display:inline"
     transform="translate(-28.975865,-26.560808)">
    <path
       style="fill:#1970d7;fill-opacity:1;fill-rule:evenodd;stroke:none"
       d="m 300,180 c 0,0 0,120 -120,120 z m 0,0"
       id="path77" />
    <path
       style="fill:none;stroke:#1970d7;stroke-width:5;stroke-linecap:round;stroke-linejoin:round;stroke-miterlimit:10;stroke-opacity:1"
       d="m 300,180 c 0,0 0,120 -120,120"
       id="path79" />
    <path
       style="fill:#1970d7;fill-opacity:1;fill-rule:evenodd;stroke:none"
       d="M 180,180 H 60 L 180,60 Z m 0,0"
       id="path61" />
    <path
       style="fill:none;stroke:#1970d7;stroke-width:5;stroke-linecap:round;stroke-linejoin:round;stroke-miterlimit:10;stroke-opacity:1"
       d="M 180,180 H 60 L 180,60 v 120"
       id="path63" />
    <path
       style="fill:#1970d7;fill-opacity:1;fill-rule:evenodd;stroke:none"
       d="M 180,180 H 300 L 180,300 Z m 0,0"
       id="path65" />
    <path
       style="fill:none;stroke:#1970d7;stroke-width:5;stroke-linecap:round;stroke-linejoin:round;stroke-miterlimit:10;stroke-opacity:1"
       d="M 180,180 H 300 L 180,300 V 180"
       id="path67" />
    <path
       style="fill:#ffffff;fill-opacity:1;fill-rule:evenodd;stroke:none"
       d="m 180,60 c 0,0 120,0 120,120 0,0 -120,0 -120,120 0,0 -120,0 -120,-120 0,0 120,0 120,-120 z m 0,0"
       id="path69" />
    <path
       style="fill:#1970d7;fill-opacity:1;fill-rule:evenodd;stroke:none"
       d="m 60,180 c 0,0 0,-120 120,-120 z m 0,0"
       id="path73" />
    <path
       style="fill:none;stroke:#1970d7;stroke-width:5;stroke-linecap:round;stroke-linejoin:round;stroke-miterlimit:10;stroke-opacity:1"
       d="M 60,180 C 60,180 60,60 180,60"
       id="path75" />
    <path
       style="fill:none;stroke:#ffffff;stroke-width:5;stroke-linecap:round;stroke-linejoin:round;stroke-miterlimit:10;stroke-opacity:1"
       d="m 180,60 c 0,0 120,0 120,120 0,0 -120,0 -120,120 0,0 -120,0 -120,-120 0,0 120,0 120,-120"
       id="path71" />
  </g>
  <ellipse
     style="fill:#ffffff;fill-opacity:1;stroke:none;stroke-width:7.89748;stroke-dasharray:none;stroke-opacity:1"
     id="path3637-7"
     cx="-150.16684"
     cy="-68.674026"
     rx="9.7727594"
     ry="37.791714"
     transform="scale(-1)" />
  <ellipse
     style="fill:#ffffff;fill-opacity:1;stroke:none;stroke-width:7.89748;stroke-dasharray:none;stroke-opacity:1"
     id="path3637-5"
     cx="-152.81616"
     cy="66.374664"
     rx="9.7727594"
     ry="37.791714"
     transform="rotate(-90)" />
  <ellipse
     style="fill:#ffffff;fill-opacity:1;stroke:none;stroke-width:7.89748;stroke-dasharray:none;stroke-opacity:1"
     id="path3637"
     cx="-150.89653"
     cy="-238.1779"
     rx="9.7727594"
     ry="37.791714"
     transform="scale(-1)" />
  <ellipse
     style="fill:#ffffff;fill-opacity:1;stroke:none;stroke-width:7.89748;stroke-dasharray:none;stroke-opacity:1"
     id="path3637-6"
     cx="153.7867"
     cy="-235.72543"
     rx="9.7727594"
     ry="37.791714"
     transform="rotate(90)" />
  <ellipse
     style="fill:none;stroke:#2e3436;stroke-width:10;stroke-dasharray:none;stroke-opacity:1"
     id="path349"
     cx="151.32736"
     cy="152.07185"
     rx="123.89126"
     ry="123.5675" />
</svg>
